<?xml version="1.0" standalone="no"?><!DOCTYPE svg PUBLIC "-//W3C//DTD SVG 1.1//EN" "http://www.w3.org/Graphics/SVG/1.1/DTD/svg11.dtd"><svg t="1758014960172" class="icon" viewBox="0 0 1024 1024" version="1.1" xmlns="http://www.w3.org/2000/svg" p-id="7903" xmlns:xlink="http://www.w3.org/1999/xlink" width="200" height="200"><path d="M512 0a512 512 0 0 0 0 1024c180.224 0-110.592-204.8 204.8-204.8A302.08 302.08 0 0 0 1024 512 512 512 0 0 0 512 0zM179.2 486.4a76.8 76.8 0 1 1 76.8-76.8 76.8 76.8 0 0 1-76.8 76.8z m179.2-179.2a76.8 76.8 0 1 1 76.8-76.8 76.8 76.8 0 0 1-76.8 76.8z m307.2 0a76.8 76.8 0 1 1 76.8-76.8 76.8 76.8 0 0 1-76.8 76.8z m179.2 179.2a76.8 76.8 0 1 1 76.8-76.8 76.8 76.8 0 0 1-76.8 76.8z" p-id="7904" fill="#f4ea2a"></path></svg>