<?xml version="1.0" standalone="no"?><!DOCTYPE svg PUBLIC "-//W3C//DTD SVG 1.1//EN" "http://www.w3.org/Graphics/SVG/1.1/DTD/svg11.dtd"><svg t="1712641567510" class="icon" viewBox="0 0 1052 1024" version="1.1" xmlns="http://www.w3.org/2000/svg" p-id="2865" xmlns:xlink="http://www.w3.org/1999/xlink" width="205.46875" height="200"><path d="M581.968909 904.459164a54.120899 54.120899 0 0 0 46.573912 27.023949 53.804899 53.804899 0 1 0-33.256937-96.166819l-81.729847-54.535898a53.731899 53.731899 0 1 0-51.856903 39.440926 54.389898 54.389898 0 0 0 33.232938-11.442978l81.753847 54.291898a54.047899 54.047899 0 0 0 5.28299 41.388922z m46.597912-47.231911a20.328962 20.328962 0 0 1 17.626967 10.225981 20.206962 20.206962 0 0 1-17.626967 30.431942 20.255962 20.255962 0 0 1-20.328961-20.206962 20.474962 20.474962 0 0 1 20.329961-20.449961z m-149.19272-80.584849a20.645961 20.645961 0 0 1-17.625967 9.980981 20.255962 20.255962 0 0 1-20.329962-20.206962 20.328962 20.328962 0 0 1 37.955929-10.224981 20.693961 20.693961 0 0 1 0 20.449962z m410.49923 184.299654a11.199979 11.199979 0 0 1-11.076979 11.198979H174.439673a11.174979 11.174979 0 0 1-11.052979-11.199979v-415.099221h-52.027903v415.099221A62.715882 62.715882 0 0 0 174.439673 1023.99894h704.356679a62.715882 62.715882 0 0 0 63.079882-63.055882V545.839837h-52.002903v415.101221zM406.141238 341.820219a53.804899 53.804899 0 1 0 0 107.609798 53.3419 53.3419 0 0 0 33.913937-11.929977l173.319675 130.007756 0.340999-0.486999a53.2449 53.2449 0 0 0 1.387998 32.379939l-5.063991-4.867991-116.349782 116.373782 23.663956 23.615956 112.892788-112.965788a53.5609 53.5609 0 0 0 35.374934 13.389974 53.804899 53.804899 0 1 0-33.937936-95.67982l-173.319675-130.008756-0.317 0.486999a53.853899 53.853899 0 0 0-51.905903-67.924873z m17.601967 64.02988a20.304962 20.304962 0 1 1-17.601967-30.432943 20.206962 20.206962 0 0 1 17.601967 30.432943z m241.903547 154.84071a20.328962 20.328962 0 1 1-20.329962 20.450961 20.304962 20.304962 0 0 1 20.329962-20.449961z m379.944288-59.890888L569.454932 18.017826A62.690882 62.690882 0 0 0 525.145015 0.00186h-0.413999a61.449885 61.449885 0 0 0-44.479916 18.745965L7.644986 497.879926a26.049951 26.049951 0 0 0 18.502965 44.309917 26.390951 26.390951 0 0 0 18.526965-7.789985L517.25703 55.267756a10.93098 10.93098 0 0 1 7.911985-3.408993 10.78498 10.78498 0 0 1 7.863986 3.408993L1008.658109 537.319853a25.806952 25.806952 0 0 0 36.519931 0 26.074951 26.074951 0 0 0 0.413-36.519932z" fill="#ffffff" p-id="2866"></path></svg>