<?xml version="1.0" standalone="no"?><!DOCTYPE svg PUBLIC "-//W3C//DTD SVG 1.1//EN" "http://www.w3.org/Graphics/SVG/1.1/DTD/svg11.dtd"><svg t="1604402884878" class="icon" viewBox="0 0 1024 1024" version="1.1" xmlns="http://www.w3.org/2000/svg" p-id="1380" xmlns:xlink="http://www.w3.org/1999/xlink" width="200" height="200"><defs><style type="text/css"></style></defs><path d="M736 496v-16h146.368A32 32 0 1 0 912 436 31.904 31.904 0 0 0 880.4 464H736v-16h-32v-32h32v-16h42.416l48-32h55.952A32 32 0 1 0 912 324 31.904 31.904 0 0 0 880.4 352h-58.832l-48 32H736v-16h-32v-48h-48v-32h-16v-29.328l48-64V150.864a31.936 31.936 0 0 0-8-62.864 31.936 31.936 0 1 0-8 62.864v38.464l-48 64V288h-16v32h-32v-32h-16v-61.52l32-46.672V150.864a31.936 31.936 0 0 0-8-62.864 31.936 31.936 0 1 0-8 62.864v24l-32 46.672V288h-16v32h-32v-32h-16v-105.136a31.936 31.936 0 0 0-8-62.864 31.936 31.936 0 1 0-8 62.864V288h-16v32h-32v-32h-16v-51.312l-32-32V150.864a31.936 31.936 0 0 0-8-62.864 31.936 31.936 0 1 0-8 62.864v60.448l32 32V288h-16v32h-48v48h-32v16h-25.584l-48-32H155.6a31.904 31.904 0 0 0-31.6-28 32 32 0 0 0 0 64c13.408 0 24.864-8.288 29.632-20h55.952l48 32H288v16h32v32h-32v16H139.6a31.904 31.904 0 0 0-31.6-28 32 32 0 0 0 0 64c13.408 0 24.864-8.288 29.632-20H288v16h32v32h-32v16h-84.4a31.904 31.904 0 0 0-31.6-28 32 32 0 0 0 0 64c13.408 0 24.864-8.288 29.632-20H288v16h32v32h-32v16h-46.416l-48 32H139.6a31.904 31.904 0 0 0-31.6-28 32 32 0 0 0 0 64c13.408 0 24.864-8.288 29.632-20h60.8l48-32H288v16h32v48h48v32h16v37.328l-48 64v43.792a31.936 31.936 0 0 0 8 62.864 31.936 31.936 0 1 0 8-62.864v-38.464l48-64V736h16v-32h32v32h16v69.52l-32 46.672v28.944A31.936 31.936 0 0 0 440 944a31.936 31.936 0 1 0 8-62.864v-24l32-46.672V736h16v-32h32v32h16v113.136A31.936 31.936 0 0 0 552 912a31.936 31.936 0 1 0 8-62.864V736h16v-32h32v32h16v59.312l32 32v53.824A31.936 31.936 0 0 0 664 944a31.936 31.936 0 1 0 8-62.864v-60.448l-32-32V736h16v-32h48v-48h32v-16h52.688l32 32h61.68A32 32 0 1 0 912 628 31.904 31.904 0 0 0 880.4 656h-53.088l-32-32H736v-16h-32v-32h32v-16h82.368A32 32 0 1 0 848 516 31.904 31.904 0 0 0 816.4 544H736v-16h-32v-32h32z m176-44a16 16 0 1 1 0 32 16 16 0 0 1 0-32z m0-112a16 16 0 1 1 0 32 16 16 0 0 1 0-32zM704 384h16v16h-16v-16zM664 120a16 16 0 1 1 32 0 16 16 0 0 1-32 0z m-96 0a16 16 0 1 1 32 0 16 16 0 0 1-32 0z m-112 32a16 16 0 1 1 32 0 16 16 0 0 1-32 0z m-112-32a16 16 0 1 1 32 0 16 16 0 0 1-32 0zM124 372a16 16 0 1 1 0-32 16 16 0 0 1 0 32z m-16 112a16 16 0 1 1 0-32 16 16 0 0 1 0 32z m64 80a16 16 0 1 1 0-32 16 16 0 0 1 0 32z m-64 112a16 16 0 1 1 0-32 16 16 0 0 1 0 32zM320 640h-16v-16h16v16z m0-80h-16v-16h16v16z m0-80h-16v-16h16v16z m0-80h-16v-16h16v16z m40 512a16 16 0 1 1-32 0 16 16 0 0 1 32 0z m96 0a16 16 0 1 1-32 0 16 16 0 0 1 32 0z m112-32a16 16 0 1 1-32 0 16 16 0 0 1 32 0z m112 32a16 16 0 1 1-32 0 16 16 0 0 1 32 0zM624 304h16v16h-16v-16z m-80 0h16v16h-16v-16z m-80 0h16v16h-16v-16z m-80 0h16v16h-16v-16z m16 416h-16v-16h16v16z m80 0h-16v-16h16v16z m80 0h-16v-16h16v16z m80 0h-16v-16h16v16z m48-32H336V336h352v352z m224-44a16 16 0 1 1 0 32 16 16 0 0 1 0-32zM720 624v16h-16v-16h16z m128-92a16 16 0 1 1 0 32 16 16 0 0 1 0-32zM720 544v16h-16v-16h16z m-16-80h16v16h-16v-16z" fill="#37474F" p-id="1381"></path><path d="M656 368H368v288h288V368z m-16 272H384V384h256v256z" fill="#37474F" p-id="1382"></path><path d="M597.664 437.648l-112 112-11.312-11.312 112-112zM517.664 469.648l-96 96-11.312-11.312 96-96z" fill="#37474F" p-id="1383"></path></svg>