<?xml version="1.0" standalone="no"?><!DOCTYPE svg PUBLIC "-//W3C//DTD SVG 1.1//EN" "http://www.w3.org/Graphics/SVG/1.1/DTD/svg11.dtd"><svg t="1708336419007" class="icon" viewBox="0 0 1399 1024" version="1.1" xmlns="http://www.w3.org/2000/svg" p-id="4544" xmlns:xlink="http://www.w3.org/1999/xlink" width="273.2421875" height="200"><path d="M1006.9504 3.976533C1100.1344 3.976533 1399.466667 221.201067 1399.466667 767.402667c0 182.0672-84.48 243.5072-145.442134 243.5072-184.7808 0-434.7904-178.875733-551.082666-178.875734-115.131733 0-366.114133 178.875733-548.181334 178.875734-56.234667 0-154.760533-61.44-154.760533-243.5072C0 221.201067 305.083733 3.976533 398.165333 3.976533c122.811733 0 156.945067 86.357333 304.759467 86.357334S885.777067 3.976533 1006.9504 3.976533z m0 51.2c-33.553067 0-57.258667 6.929067-95.7952 25.941334l-22.9888 11.656533c-67.498667 34.389333-113.595733 48.759467-185.2416 48.759467-68.864 0-113.834667-13.226667-177.288533-44.885334l-23.210667-11.776c-43.281067-21.930667-67.908267-29.696-104.260267-29.696-4.5056 0-13.312 2.065067-24.576 6.656-14.250667 5.7856-30.549333 14.7968-47.735466 26.709334-40.823467 28.296533-82.551467 69.8368-120.064 122.1632C109.056 345.5488 51.2 532.6848 51.2 767.419733c0 127.061333 54.1696 192.290133 103.543467 192.290134 47.786667 0 106.615467-14.762667 180.8384-43.639467l12.3904-4.881067a2058.581333 2058.581333 0 0 0 68.864-29.2352l95.6928-42.632533c117.230933-51.746133 140.2368-58.129067 185.9584-58.4704h8.9088l8.533333 0.136533c40.891733 1.194667 67.8912 9.796267 178.824533 58.658134l78.933334 35.072c41.386667 18.500267 72.567467 31.709867 102.826666 43.281066 72.1408 27.5968 129.979733 41.710933 177.5104 41.710934 48.128 0 94.242133-61.166933 94.242134-192.3072 0-235.008-56.900267-422.280533-151.9616-557.021867-36.9152-52.3264-77.943467-93.815467-118.135467-122.026667-16.896-11.861333-32.955733-20.821333-47.018667-26.589866-11.076267-4.539733-19.729067-6.587733-24.200533-6.587734z m-502.869333 273.066667a17.066667 17.066667 0 0 1 17.066666 17.066667l-0.017066 110.318933H631.466667a17.066667 17.066667 0 0 1 17.066666 17.066667v35.362133a17.066667 17.066667 0 0 1-17.066666 17.066667h-110.336v110.318933a17.066667 17.066667 0 0 1-17.066667 17.066667h-35.328a17.066667 17.066667 0 0 1-17.066667-17.066667l-0.017066-110.336L341.333333 525.141333a17.066667 17.066667 0 0 1-17.066666-17.066666v-35.345067a17.066667 17.066667 0 0 1 17.066666-17.066667h110.318934v-110.336a17.066667 17.066667 0 0 1 17.066666-17.066666h35.362134zM897.536 521.489067c33.8432 0 61.269333 28.3136 61.269333 63.249066 0 34.935467-27.426133 63.249067-61.269333 63.249067-33.8432 0-61.2864-28.330667-61.2864-63.249067 0-34.935467 27.4432-63.249067 61.269333-63.249066zM1013.9136 341.333333C1047.7568 341.333333 1075.2 369.664 1075.2 404.5824c0 34.935467-27.4432 63.249067-61.269333 63.249067-33.860267 0-61.303467-28.3136-61.303467-63.249067 0-34.935467 27.4432-63.249067 61.2864-63.249067z" p-id="4545"></path></svg>