<?xml version="1.0" standalone="no"?><!DOCTYPE svg PUBLIC "-//W3C//DTD SVG 1.1//EN" "http://www.w3.org/Graphics/SVG/1.1/DTD/svg11.dtd"><svg t="1700747801493" class="icon" viewBox="0 0 1024 1024" version="1.1" xmlns="http://www.w3.org/2000/svg" p-id="6982" xmlns:xlink="http://www.w3.org/1999/xlink" width="200" height="200"><path d="M737.557 948.971L557.985 539.473c28.778-16.294 49.019-45.987 49.019-81.393 0-52.475-42.529-95.005-95.004-95.005s-95.004 42.53-95.004 95.005c0 35.405 20.242 65.099 48.947 81.393L286.373 948.97c-15.517 35.548 3.456 64.606 42.248 64.606H695.38c38.791 0 57.764-29.058 42.177-64.606zM457.863 457.207c0-30.686 24.876-55.561 55.561-55.561 30.686 0 55.56 24.875 55.56 55.561s-24.875 55.562-55.56 55.562c-30.685 0-55.561-24.876-55.561-55.562z m-123.92 512.058l178.064-405.934L689.986 969.18l-356.042 0.086zM512 164.11c-162.08 0-293.9 131.892-293.9 293.9 0 85.2 36.957 161.373 95.004 215.046l22.595-51.487c-40.859-43.386-65.906-101.829-65.906-166.128 0-133.862 108.516-242.378 242.378-242.378S754.549 321.578 754.549 455.44c0 64.422-25.141 122.967-66.138 166.378l22.485 51.237C768.943 619.311 805.9 543.21 805.9 458.01c0-162.08-131.82-293.9-293.9-293.9z m0-153.687c-246.856 0-447.657 200.802-447.657 447.658 0 148.466 72.928 279.864 184.578 361.398l23.793-54.272c-93.118-71.784-153.125-184.42-153.125-311.087 0-216.817 175.764-392.581 392.58-392.581s392.582 175.764 392.582 392.58c0 126.784-60.117 239.51-153.381 311.283l23.707 54.076c111.65-81.462 184.578-212.932 184.578-361.398 0-246.855-200.799-447.657-447.655-447.657z" p-id="6983" fill="#13227a"></path></svg>