<?xml version="1.0" standalone="no"?><!DOCTYPE svg PUBLIC "-//W3C//DTD SVG 1.1//EN" "http://www.w3.org/Graphics/SVG/1.1/DTD/svg11.dtd"><svg t="1700747033622" class="icon" viewBox="0 0 1024 1024" version="1.1" xmlns="http://www.w3.org/2000/svg" p-id="4379" xmlns:xlink="http://www.w3.org/1999/xlink" width="200" height="200"><path d="M157 610.7s4.8 76.1 73.5 77.3 77-50.3 77-50.3l-150.5-27z" fill="#3F3F3F" p-id="4380"></path><path d="M232.8 690.5h-2.4c-36.8-0.7-55.5-22.4-64.7-40.5-9.9-19.4-11.2-38.4-11.2-39.2l2.9-2.6 150.5 27.1 2 2.9c-0.1 0.6-2.3 13.7-13.3 26.8-17.5 20.9-43.9 25.5-63.8 25.5z m-73-76.8c0.8 6.1 3.3 20.2 10.4 34.1 12.5 24.5 32.8 37.1 60.3 37.6 27.6 0.5 48.5-7.4 62.1-23.6 7.5-8.9 10.6-18 11.8-22.2l-144.6-25.9z" fill="#333333" p-id="4381"></path><path d="M865.3 610.7s-4.8 76.1-73.5 77.3-78.1-58-78.1-58l151.6-19.3z" fill="#3F3F3F" p-id="4382"></path><path d="M789.7 690.5c-35.2 0-54.6-16-64.8-29.6-11.2-15-13.7-29.9-13.8-30.6l2.2-2.9 151.6-19.3 2.8 2.6c0 0.8-1.3 19.8-11.2 39.2-9.2 18.1-28 39.8-64.7 40.5-0.7 0.1-1.4 0.1-2.1 0.1z m-73.1-58.4c1.2 4.8 4.5 15.5 12.4 26 14 18.7 35.1 27.9 62.7 27.4 27.5-0.5 47.7-13.2 60.3-37.6 7.2-14.1 9.7-28.3 10.5-34.3l-145.9 18.5z" fill="#333333" p-id="4383"></path><path d="M249.9 266.3v-7s14.5-14.3 47.8-13c33.3 1.3 39.7 8 39.7 8v9.4l-87.5 2.6z" fill="#3F3F3F" p-id="4384"></path><path d="M249.9 268.8l-2.6-2.5v-7l0.7-1.8c0.6-0.6 15.6-15.1 49.7-13.7 33.4 1.3 40.7 8 41.4 8.8l0.7 1.7v9.4l-2.4 2.5-87.5 2.6z m2.5-8.3v3.3l82.5-2.4v-5.7c-2.4-1.4-11.5-5.7-37.3-6.8-16.6-0.7-28.2 2.7-35 5.7-5.5 2.3-8.8 4.7-10.2 5.9z" fill="#333333" p-id="4385"></path><path d="M769.3 266.3v-7s-14.5-14.3-47.8-13c-33.3 1.3-39.7 8-39.7 8v9.4l87.5 2.6z" fill="#3F3F3F" p-id="4386"></path><path d="M769.2 268.8l-87.5-2.6-2.4-2.5v-9.4l0.7-1.7c0.7-0.8 8-7.4 41.4-8.8 34-1.4 49 13.1 49.7 13.7l0.7 1.8v7l-2.6 2.5z m-84.9-7.5l82.5 2.4v-3.3c-3.3-2.7-17.5-12.7-45.2-11.6-25.7 1-34.8 5.3-37.3 6.8v5.7z" fill="#333333" p-id="4387"></path><path d="M209 323.3c-12.1 27.6-33.8 130.2-38.7 161.4-4.9 31.1-13.3 126-13.3 126s30 32 73.3 34 77.1-6.9 77.1-6.9l28.2-91.1s8-15.3 15.3-16c7.3-0.7 313.3-2.7 313.3-2.7s4-2.7 10.7 3.3 38.6 98.7 38.6 98.7 13.4 22.9 74.7 14.7c61.3-8.2 76.6-32.7 76.6-32.7s-7.3-94-29.9-208.7-56.8-135.8-56.8-135.8-37-11.5-56.5-10.8c-19.5 0.7-54.6 10-54.6 10H353.9s-40.2-8-66.2-8S237 272 237 272s-21.1 35.7-28 51.3z" fill="#00E7FF" p-id="4388"></path><path d="M763.5 649c-41.1 0-51.5-16.9-52-17.7l-0.2-0.4c-12.3-35.6-33.4-93.6-37.9-97.6-4.9-4.5-7.6-3.1-7.7-3.1 0.1 0 0.1-0.1 0.1-0.1l-1.4 0.4c-105.8 0.7-307.4 2.1-313.1 2.7-4.1 0.4-10.1 8.6-13.2 14.5L310 638.5l-1.7 1.7c-0.3 0.1-34.7 9-77.9 7-43.8-2-73.8-33.5-75-34.8l-0.7-1.9c0.1-0.9 8.5-95.3 13.4-126.1 5.2-33.1 26.9-134.8 38.9-162l2.3 1-2.3-1c6.9-15.6 27.3-50.1 28.1-51.6l1-0.9c1-0.6 25.5-13.6 51.9-13.6 25.2 0 62.7 7.3 66.4 8H667c3.8-1 36.1-9.4 54.9-10 19.7-0.7 55.8 10.5 57.3 10.9l0.6 0.3c1.4 0.9 35.3 23.1 58 137.5 22.4 113.5 29.9 208 30 209l-0.4 1.5c-0.6 1-16.6 25.5-78.4 33.8-9.8 1.1-18.1 1.7-25.5 1.7z m-47.6-20.1c1.4 1.9 16.3 20.8 72.1 13.3 30.9-4.2 49.7-12.5 59.9-18.8 9-5.5 13.2-10.4 14.5-12.1-0.8-10-8.6-100.2-29.8-207.5-11.5-58.4-26.1-91.8-36.2-109.5-10-17.4-17.8-23.5-19.2-24.5-3.8-1.2-37.5-11.2-55.3-10.6-19 0.6-53.7 9.8-54.1 9.9l-0.6 0.1H353.4c-0.4-0.1-40.3-8-65.7-8-22.9 0-45 10.7-48.9 12.7-2.8 4.8-21.2 36.2-27.5 50.5-11.8 26.9-33.4 127.9-38.5 160.7-4.5 28.8-12.2 113.7-13.2 124.7 4.9 4.8 32.8 30.7 70.9 32.4 37.7 1.7 68.4-4.9 75.1-6.5l27.8-89.7 0.2-0.4c0.9-1.7 8.9-16.6 17.3-17.3 7.3-0.7 294.3-2.6 313-2.7 1.8-0.7 6.6-1.7 12.9 4 6.6 6 33.5 83.1 39.1 99.3z" fill="#333333" p-id="4389"></path><path d="M398.9 470.6m-75 0a75 75 0 1 0 150 0 75 75 0 1 0-150 0Z" fill="#2CFAFF" p-id="4390"></path><path d="M398.9 548.1c-42.7 0-77.5-34.8-77.5-77.5s34.8-77.5 77.5-77.5 77.5 34.8 77.5 77.5-34.8 77.5-77.5 77.5z m0-150c-40 0-72.5 32.5-72.5 72.5s32.5 72.5 72.5 72.5 72.5-32.5 72.5-72.5-32.5-72.5-72.5-72.5z" fill="#333333" p-id="4391"></path><path d="M398.9 470.6m-39 0a39 39 0 1 0 78 0 39 39 0 1 0-78 0Z" fill="#3F3F3F" p-id="4392"></path><path d="M398.9 512.1c-22.9 0-41.5-18.6-41.5-41.5s18.6-41.5 41.5-41.5 41.5 18.6 41.5 41.5-18.6 41.5-41.5 41.5z m0-78c-20.1 0-36.5 16.4-36.5 36.5s16.4 36.5 36.5 36.5 36.5-16.4 36.5-36.5-16.4-36.5-36.5-36.5z" fill="#333333" p-id="4393"></path><path d="M398.9 470.6m-24 0a24 24 0 1 0 48 0 24 24 0 1 0-48 0Z" fill="#212121" p-id="4394"></path><path d="M398.9 497.1c-14.6 0-26.5-11.9-26.5-26.5s11.9-26.5 26.5-26.5 26.5 11.9 26.5 26.5-11.9 26.5-26.5 26.5z m0-48.1c-11.9 0-21.5 9.7-21.5 21.5s9.7 21.5 21.5 21.5 21.5-9.7 21.5-21.5-9.6-21.5-21.5-21.5z" fill="#333333" p-id="4395"></path><path d="M624.9 470.6m-75 0a75 75 0 1 0 150 0 75 75 0 1 0-150 0Z" fill="#2CFAFF" p-id="4396"></path><path d="M624.9 548.1c-42.7 0-77.5-34.8-77.5-77.5s34.8-77.5 77.5-77.5 77.5 34.8 77.5 77.5-34.8 77.5-77.5 77.5z m0-150c-40 0-72.5 32.5-72.5 72.5s32.5 72.5 72.5 72.5 72.5-32.5 72.5-72.5-32.6-72.5-72.5-72.5z" fill="#333333" p-id="4397"></path><path d="M624.9 470.6m-39 0a39 39 0 1 0 78 0 39 39 0 1 0-78 0Z" fill="#3F3F3F" p-id="4398"></path><path d="M624.9 512.1c-22.9 0-41.5-18.6-41.5-41.5s18.6-41.5 41.5-41.5 41.5 18.6 41.5 41.5-18.7 41.5-41.5 41.5z m0-78c-20.1 0-36.5 16.4-36.5 36.5s16.4 36.5 36.5 36.5 36.5-16.4 36.5-36.5-16.4-36.5-36.5-36.5z" fill="#333333" p-id="4399"></path><path d="M625.5 470.6m-24.2 0a24.2 24.2 0 1 0 48.4 0 24.2 24.2 0 1 0-48.4 0Z" fill="#212121" p-id="4400"></path><path d="M625.5 497.3c-14.7 0-26.7-12-26.7-26.7s12-26.7 26.7-26.7 26.7 12 26.7 26.7-12 26.7-26.7 26.7z m0-48.4c-12 0-21.7 9.7-21.7 21.7s9.7 21.7 21.7 21.7 21.7-9.7 21.7-21.7-9.7-21.7-21.7-21.7z" fill="#333333" p-id="4401"></path><path d="M366.7 321.5c-5.7 0-10.3-4.6-10.3-10.3v-17.8c0-5.7 4.6-10.3 10.3-10.3 5.7 0 10.3 4.6 10.3 10.3v17.8c0 5.7-4.6 10.3-10.3 10.3z" fill="#3F3F3F" p-id="4402"></path><path d="M366.7 324c-7.1 0-12.8-5.8-12.8-12.8v-17.8c0-7.1 5.8-12.8 12.8-12.8s12.8 5.8 12.8 12.8v17.8c0 7-5.8 12.8-12.8 12.8z m0-38.5c-4.3 0-7.8 3.5-7.8 7.8v17.8c0 4.3 3.5 7.8 7.8 7.8s7.8-3.5 7.8-7.8v-17.8c0-4.3-3.5-7.8-7.8-7.8z" fill="#333333" p-id="4403"></path><path d="M655.8 321.5c-5.7 0-10.3-4.6-10.3-10.3v-17.8c0-5.7 4.6-10.3 10.3-10.3 5.7 0 10.3 4.6 10.3 10.3v17.8c0.1 5.7-4.6 10.3-10.3 10.3z" fill="#3F3F3F" p-id="4404"></path><path d="M655.8 324c-7.1 0-12.8-5.8-12.8-12.8v-17.8c0-7.1 5.8-12.8 12.8-12.8s12.8 5.8 12.8 12.8v17.8c0.1 7-5.7 12.8-12.8 12.8z m0-38.5c-4.3 0-7.8 3.5-7.8 7.8v17.8c0 4.3 3.5 7.8 7.8 7.8s7.8-3.5 7.8-7.8v-17.8c0.1-4.3-3.5-7.8-7.8-7.8z" fill="#333333" p-id="4405"></path><path d="M607.6 390H412.8c-11.3 0-20.4-9.2-20.4-20.4V266.7H628v102.9c0 11.2-9.2 20.4-20.4 20.4z" fill="#3F3F3F" p-id="4406"></path><path d="M607.6 392.5H412.8c-12.7 0-22.9-10.3-22.9-22.9V266.7l2.5-2.5H628l2.5 2.5v102.9c0 12.6-10.3 22.9-22.9 22.9zM394.9 269.2v100.4c0 9.9 8.1 17.9 17.9 17.9h194.7c9.9 0 17.9-8.1 17.9-17.9V269.2H394.9z" fill="#333333" p-id="4407"></path><path d="M732.8 316.8m-22.4 0a22.4 22.4 0 1 0 44.8 0 22.4 22.4 0 1 0-44.8 0Z" fill="#3F3F3F" p-id="4408"></path><path d="M732.8 341.7c-13.7 0-24.9-11.2-24.9-24.9s11.2-24.9 24.9-24.9 24.9 11.2 24.9 24.9-11.1 24.9-24.9 24.9z m0-44.9c-11 0-19.9 8.9-19.9 19.9s8.9 19.9 19.9 19.9 19.9-8.9 19.9-19.9-8.9-19.9-19.9-19.9z" fill="#333333" p-id="4409"></path><path d="M732.8 420.4m-22.4 0a22.4 22.4 0 1 0 44.8 0 22.4 22.4 0 1 0-44.8 0Z" fill="#3F3F3F" p-id="4410"></path><path d="M732.8 445.4c-13.7 0-24.9-11.2-24.9-24.9s11.2-24.9 24.9-24.9 24.9 11.2 24.9 24.9c0.1 13.7-11.1 24.9-24.9 24.9z m0-44.9c-11 0-19.9 8.9-19.9 19.9s8.9 19.9 19.9 19.9 19.9-8.9 19.9-19.9-8.9-19.9-19.9-19.9z" fill="#333333" p-id="4411"></path><path d="M681.1 369.2m-22.4 0a22.4 22.4 0 1 0 44.8 0 22.4 22.4 0 1 0-44.8 0Z" fill="#3F3F3F" p-id="4412"></path><path d="M681.1 394.1c-13.7 0-24.9-11.2-24.9-24.9s11.2-24.9 24.9-24.9 24.9 11.2 24.9 24.9-11.2 24.9-24.9 24.9z m0-44.8c-11 0-19.9 8.9-19.9 19.9s8.9 19.9 19.9 19.9 19.9-8.9 19.9-19.9-9-19.9-19.9-19.9z" fill="#333333" p-id="4413"></path><path d="M786.8 369.2m-22.4 0a22.4 22.4 0 1 0 44.8 0 22.4 22.4 0 1 0-44.8 0Z" fill="#3F3F3F" p-id="4414"></path><path d="M786.8 394.1c-13.7 0-24.9-11.2-24.9-24.9s11.2-24.9 24.9-24.9 24.9 11.2 24.9 24.9-11.1 24.9-24.9 24.9z m0-44.8c-11 0-19.9 8.9-19.9 19.9s8.9 19.9 19.9 19.9 19.9-8.9 19.9-19.9-8.9-19.9-19.9-19.9z" fill="#333333" p-id="4415"></path><path d="M271.5 313.8v30.5l16.1 14.7 15.9-16.3v-28.9z" fill="#3F3F3F" p-id="4416"></path><path d="M286 360.9l-16.1-14.7-0.8-1.9v-30.5l2.5-2.5h32l2.5 2.5v28.9l-0.7 1.7-15.8 16.3-3.6 0.2z m-12-17.7l13.5 12.3 13.5-13.8v-25.4h-27v26.9z" fill="#333333" p-id="4417"></path><path d="M303.5 429.2v-30.5L287.4 384l-15.9 16.3v28.9z" fill="#3F3F3F" p-id="4418"></path><path d="M303.5 431.7h-32l-2.5-2.5v-28.9l0.7-1.7 15.8-16.3 3.5-0.1 16.1 14.7 0.8 1.9v30.5l-2.4 2.4z m-29.5-5h27v-26.9l-13.5-12.3-13.5 13.8v25.4z" fill="#333333" p-id="4419"></path><path d="M231.9 386.5h30.5l14.6-16.1-16.3-15.9h-28.8z" fill="#3F3F3F" p-id="4420"></path><path d="M262.4 389h-30.5l-2.5-2.5v-32l2.5-2.5h28.9l1.7 0.7 16.3 15.8 0.1 3.5-14.7 16.1-1.8 0.9z m-28-5h26.9l12.3-13.5-13.9-13.5h-25.4v27z" fill="#333333" p-id="4421"></path><path d="M343.2 354.5h-30.5L298 370.7l16.3 15.8h28.9z" fill="#3F3F3F" p-id="4422"></path><path d="M343.2 389h-28.9l-1.7-0.7-16.3-15.8-0.1-3.5 14.7-16.1 1.9-0.8h30.5l2.5 2.5v32l-2.6 2.4z m-27.9-5h25.4v-27h-26.9l-12.3 13.5 13.8 13.5z" fill="#333333" p-id="4423"></path><path d="M473.9 529.7l10.6-10.5H545l8.5 9.6z" fill="#3F3F3F" p-id="4424"></path><path d="M473.9 532.2l-1.8-4.3 10.6-10.5 1.8-0.7H545l1.9 0.8 8.5 9.6-1.8 4.2-79.7 0.9z m11.6-10.5l-5.5 5.4 67.9-0.8-4.1-4.7h-58.3z" fill="#333333" p-id="4425"></path><path d="M512.6 472.2m-18.1 0a18.1 18.1 0 1 0 36.2 0 18.1 18.1 0 1 0-36.2 0Z" fill="#FFCE00" p-id="4426"></path><path d="M512.6 492.8c-11.4 0-20.6-9.2-20.6-20.6s9.2-20.6 20.6-20.6c11.4 0 20.6 9.2 20.6 20.6s-9.3 20.6-20.6 20.6z m0-36.2c-8.6 0-15.6 7-15.6 15.6s7 15.6 15.6 15.6 15.6-7 15.6-15.6-7-15.6-15.6-15.6z" fill="#333333" p-id="4427"></path><path d="M488.2 417.1c-2.1 0-3.8-1.7-3.8-3.8 0-2.1 1.7-3.8 3.8-3.8 2.1 0 3.8 1.7 3.8 3.8 0 2.1-1.7 3.8-3.8 3.8z m0-5c-0.7 0-1.2 0.5-1.2 1.2s0.5 1.2 1.2 1.2 1.2-0.5 1.2-1.2-0.6-1.2-1.2-1.2zM494.9 427c-2.1 0-3.8-1.7-3.8-3.8 0-2.1 1.7-3.8 3.8-3.8s3.8 1.7 3.8 3.8c0 2.1-1.7 3.8-3.8 3.8z m0-5c-0.7 0-1.2 0.5-1.2 1.2s0.5 1.2 1.2 1.2 1.2-0.5 1.2-1.2-0.5-1.2-1.2-1.2zM501.3 436c-2.1 0-3.8-1.7-3.8-3.8 0-2.1 1.7-3.8 3.8-3.8s3.8 1.7 3.8 3.8c0 2.1-1.7 3.8-3.8 3.8z m0-5c-0.7 0-1.2 0.5-1.2 1.2s0.5 1.2 1.2 1.2 1.2-0.5 1.2-1.2-0.5-1.2-1.2-1.2zM514.2 436c-2.1 0-3.8-1.7-3.8-3.8 0-2.1 1.7-3.8 3.8-3.8 2.1 0 3.8 1.7 3.8 3.8 0 2.1-1.7 3.8-3.8 3.8z m0-5c-0.7 0-1.2 0.5-1.2 1.2s0.5 1.2 1.2 1.2 1.2-0.5 1.2-1.2-0.5-1.2-1.2-1.2zM527.7 436c-2.1 0-3.8-1.7-3.8-3.8 0-2.1 1.7-3.8 3.8-3.8 2.1 0 3.8 1.7 3.8 3.8-0.1 2.1-1.8 3.8-3.8 3.8z m0-5c-0.7 0-1.2 0.5-1.2 1.2s0.5 1.2 1.2 1.2 1.2-0.5 1.2-1.2-0.6-1.2-1.2-1.2zM508 427c-2.1 0-3.8-1.7-3.8-3.8 0-2.1 1.7-3.8 3.8-3.8s3.8 1.7 3.8 3.8c0 2.1-1.7 3.8-3.8 3.8z m0-5c-0.7 0-1.2 0.5-1.2 1.2s0.5 1.2 1.2 1.2 1.2-0.5 1.2-1.2-0.5-1.2-1.2-1.2zM521 427c-2.1 0-3.8-1.7-3.8-3.8 0-2.1 1.7-3.8 3.8-3.8 2.1 0 3.8 1.7 3.8 3.8 0 2.1-1.7 3.8-3.8 3.8z m0-5c-0.7 0-1.2 0.5-1.2 1.2s0.5 1.2 1.2 1.2 1.2-0.5 1.2-1.2-0.5-1.2-1.2-1.2zM533.9 427c-2.1 0-3.8-1.7-3.8-3.8 0-2.1 1.7-3.8 3.8-3.8s3.8 1.7 3.8 3.8c0 2.1-1.7 3.8-3.8 3.8z m0-5c-0.7 0-1.2 0.5-1.2 1.2s0.5 1.2 1.2 1.2 1.2-0.5 1.2-1.2-0.6-1.2-1.2-1.2zM501.8 417.1c-2.1 0-3.8-1.7-3.8-3.8 0-2.1 1.7-3.8 3.8-3.8 2.1 0 3.8 1.7 3.8 3.8 0 2.1-1.7 3.8-3.8 3.8z m0-5c-0.7 0-1.2 0.5-1.2 1.2s0.5 1.2 1.2 1.2 1.2-0.5 1.2-1.2-0.5-1.2-1.2-1.2zM513.8 417.1c-2.1 0-3.8-1.7-3.8-3.8 0-2.1 1.7-3.8 3.8-3.8 2.1 0 3.8 1.7 3.8 3.8 0 2.1-1.7 3.8-3.8 3.8z m0-5c-0.7 0-1.2 0.5-1.2 1.2s0.5 1.2 1.2 1.2 1.2-0.5 1.2-1.2-0.5-1.2-1.2-1.2zM527.5 417.1c-2.1 0-3.8-1.7-3.8-3.8 0-2.1 1.7-3.8 3.8-3.8 2.1 0 3.8 1.7 3.8 3.8 0 2.1-1.7 3.8-3.8 3.8z m0-5c-0.7 0-1.2 0.5-1.2 1.2s0.5 1.2 1.2 1.2 1.2-0.5 1.2-1.2-0.6-1.2-1.2-1.2zM540.8 417.1c-2.1 0-3.8-1.7-3.8-3.8 0-2.1 1.7-3.8 3.8-3.8 2.1 0 3.8 1.7 3.8 3.8 0 2.1-1.7 3.8-3.8 3.8z m0-5c-0.7 0-1.2 0.5-1.2 1.2s0.5 1.2 1.2 1.2 1.2-0.5 1.2-1.2-0.5-1.2-1.2-1.2z" fill="#333333" p-id="4428"></path><path d="M732.8 303.9L720.6 325H745z" fill="#3F3F3F" p-id="4429"></path><path d="M745 327.5h-24.4c-0.9 0-1.7-0.5-2.2-1.2s-0.4-1.7 0-2.5l12.2-21.1c0.4-0.8 1.3-1.2 2.2-1.2s1.7 0.5 2.2 1.2l12.2 21.1c0.4 0.8 0.4 1.7 0 2.5s-1.3 1.2-2.2 1.2z m-20-5h15.7l-7.8-13.6-7.9 13.6z" fill="#00FFD4" p-id="4430"></path><path d="M671.9 360h18.4v18.4h-18.4z" fill="#3F3F3F" p-id="4431"></path><path d="M690.2 380.9h-18.4c-1.4 0-2.5-1.1-2.5-2.5V360c0-1.4 1.1-2.5 2.5-2.5h18.4c1.4 0 2.5 1.1 2.5 2.5v18.4c0 1.4-1.1 2.5-2.5 2.5z m-15.8-5h13.4v-13.4h-13.4v13.4z" fill="#0B8BFF" p-id="4432"></path><path d="M743.2 409.2l-21.4 21.4" fill="#3F3F3F" p-id="4433"></path><path d="M721.8 433.1c-0.6 0-1.3-0.2-1.8-0.7-1-1-1-2.6 0-3.5l21.4-21.4c1-1 2.6-1 3.5 0 1 1 1 2.6 0 3.5l-21.4 21.4c-0.4 0.4-1.1 0.7-1.7 0.7z" fill="#FFB208" p-id="4434"></path><path d="M743.2 430.6l-21.4-21.4" fill="#3F3F3F" p-id="4435"></path><path d="M743.2 433.1c-0.6 0-1.3-0.2-1.8-0.7L720 410.9c-1-1-1-2.6 0-3.5 1-1 2.6-1 3.5 0l21.4 21.4c1 1 1 2.6 0 3.5-0.4 0.5-1.1 0.8-1.7 0.8z" fill="#FFB208" p-id="4436"></path><path d="M793.7 373.6h-12.3c-1.4 0-2.5-1.1-2.5-2.5s1.1-2.5 2.5-2.5h12.3c1.4 0 2.5 1.1 2.5 2.5s-1.1 2.5-2.5 2.5z" fill="#FF0068" p-id="4437"></path><path d="M777.5 381.6c-0.3 0-0.6-0.1-0.9-0.2-1.3-0.5-1.9-2-1.4-3.3l9.5-23.6c0.4-0.9 1.3-1.5 2.2-1.6 1 0 1.9 0.5 2.3 1.4l11.1 23.6c0.6 1.2 0.1 2.7-1.2 3.3-1.2 0.6-2.7 0.1-3.3-1.2l-8.7-18.4-7.3 18.3c-0.4 1.1-1.4 1.7-2.3 1.7z" fill="#FF0068" p-id="4438"></path></svg>