<?xml version="1.0" standalone="no"?><!DOCTYPE svg PUBLIC "-//W3C//DTD SVG 1.1//EN" "http://www.w3.org/Graphics/SVG/1.1/DTD/svg11.dtd"><svg t="1700747692247" class="icon" viewBox="0 0 1024 1024" version="1.1" xmlns="http://www.w3.org/2000/svg" p-id="5682" xmlns:xlink="http://www.w3.org/1999/xlink" width="200" height="200"><path d="M808.779305 528.654519c16.829603-61.158718 32.724399-118.922233 32.559553-165.533589-0.522182-162.879677-143.630633-300.487817-312.505159-300.487817l-4.014655 0.027645c-172.724335 2.226951-325.182908 143.135073-328.12453 302.344121-0.714672 4.922841-0.660406 10.601309-0.577471 17.80639 0.027645 1.89726 0.05529 3.849809 0.082935 5.650823-74.304382 87.723423-83.928904 120.517446-83.928904 139.271954 0 30.799494 17.242229 56.731438 47.299406 71.1416 9.735102 4.660726 24.914202 7.149791 60.114355 9.858992l7.314637 0.577471-0.164845 88.878366c0.467916 42.07452 35.44691 76.311197 78.593437 76.311197l74.413938 0.01331-0.220136 157.3251c0 9.335786 4.592126 18.080791 12.319389 23.333323a28.275617 28.275617 0 0 0 15.839506 4.86755 28.105652 28.105652 0 0 0 10.394483-1.993504l346.632282-137.800631c13.035084-5.169597 20.266786-19.126178 16.994448-32.752043-0.164846-0.605116-14.575008-62.16315-1.539923-140.619387 6.105428-36.725743 17.490009-78.153167 28.517254-118.220871z m-54.284352-14.945654c-11.412226 41.456093-23.209433 84.327195-29.781753 123.926984-9.872302 59.316749-5.967204 110.232518-2.007839 138.748748L435.994945 890.356344l0.220135-143.960324a28.197802 28.197802 0 0 0-8.222823-19.937095 28.159918 28.159918 0 0 0-19.937095-8.263779l-103.260883-0.01331c-11.604716 0-21.504663-9.446366-21.641864-20.253476l0.220135-114.810309c0.027645-14.808453-11.412226-27.114531-26.179724-28.145584l-33.192314-2.39282c-28.297119-2.185995-38.004575-3.890764-40.066681-4.49588-15.344969-7.342282-15.344969-16.788648-15.344969-19.978051 0.081911-0.949142 3.107492-24.158574 73.753532-106.986801l2.612955-3.066537c7.754907-9.211896 7.671973-18.672597 7.479482-35.846225-0.027645-3.038892-0.109556-5.953893-0.05529-8.084599 0.384981-1.828659 0.605116-3.698274 0.605117-5.596557 0.742317-128.76689 130.650839-247.715744 272.548034-249.545427l3.299983-0.027645c138.433391 0 255.746076 111.909642 256.186347 244.361496 0.138225 38.898427-15.454525 95.58891-30.524069 150.395444z" fill="#1296db" p-id="5683"></path><path d="M519.235798 168.671797c-71.554226 0-132.025917 48.78404-132.025918 106.53322 0 64.885661 72.626234 64.885661 136.727599 64.885661 64.101365 0 136.755243 0 136.755243-64.885661 0.001024-58.739277-63.46758-106.53322-141.456924-106.53322z m4.702705 115.099045c-62.204105 0-77.741565-5.004751-80.408786-8.565825 0-22.742541 33.769786-50.214408 75.706081-50.214408 48.72875 0 85.138113 26.509415 86.211144 50.791879-3.739229 2.983602-19.276689 7.988353-81.508439 7.988354z" fill="#1296db" p-id="5684"></path></svg>