<?xml version="1.0" standalone="no"?><!DOCTYPE svg PUBLIC "-//W3C//DTD SVG 1.1//EN" "http://www.w3.org/Graphics/SVG/1.1/DTD/svg11.dtd"><svg t="1697033080921" class="icon" viewBox="0 0 1024 1024" version="1.1" xmlns="http://www.w3.org/2000/svg" p-id="8714" xmlns:xlink="http://www.w3.org/1999/xlink" width="200" height="200"><path d="M830.470285 897.477398H806.492174v-33.519418h23.945365c10.949376-0.032746 21.375843-3.502777 30.115902-10.048866l20.098757 26.842345c-14.583137 10.899234-31.93227 16.693194-50.181913 16.725939z m-57.497529 0h-67.039859v-33.519418h67.039859v33.519418z m-100.559276 0h-67.039859v-33.519418h67.039859v33.519418z m-100.559277 0h-67.039859v-33.519418h67.039859v33.519418z m-100.559277 0h-67.039859v-33.519418h67.039859v33.519418z m-100.559277 0h-67.039859v-33.519418h67.039859v33.519418z m-100.559277 0h-67.039859v-33.519418h67.039859v33.519418z m-105.911168-5.270027c-26.891464-10.048867-46.548152-32.734542-52.604078-60.754712l32.767288-7.071046c3.568269 16.530488 15.663748 30.475082 31.555693 36.400025l-11.718903 31.425733z m742.377948-43.667545l-30.443359-14.010085c2.995217-6.514367 4.516874-13.551644 4.516873-20.851911v-38.299281h33.519418v38.299281c0.001023 12.177344-2.552126 23.896246-7.592932 34.861996z m-763.360841-54.04387h-33.519418v-67.039859h33.519418v67.039859z m770.954796-52.636824h-33.519418v-67.039859h33.519418v67.039859z m-770.954796-47.922453h-33.519418v-67.039859h33.519418v67.039859z m770.954796-52.636824h-33.519418v-67.039859h33.519418v67.039859zM143.282311 593.377402h-33.519418v-67.039859h33.519418v67.039859z m770.954796-52.636824h-33.519418v-67.039859h33.519418v67.039859zM143.282311 492.817102h-33.519418v-67.039859h33.519418v67.039859z m770.954796-52.635801h-33.519418V373.141442h33.519418v67.039859z m-770.954796-47.923476h-33.519418v-67.039859h33.519418v67.039859z m770.954796-52.635801h-33.519418v-67.039859h33.519418v67.039859z m-770.954796-47.923476h-33.519418V224.659713h33.519418v67.038835z m770.954796-52.635801h-33.519418v-28.740577c0-9.689686-2.749624-19.116383-7.970532-27.202549l28.1839-18.135033c8.707312 13.518898 13.30605 29.199019 13.30605 45.336558v28.741601z m-768.92558-42.947137l-32.177864-9.42772c8.068769-27.528983 29.330002-48.773843 56.858986-56.793494l9.394974 32.145117c-16.252149 4.77884-29.312606 17.806551-34.076096 34.076097z m709.235106-29.952173a50.723242 50.723242 0 0 0-24.109094-6.121417h-33.519417v-33.519418h33.519417c13.993712 0 27.889187 3.535523 40.148396 10.245341l-16.039302 29.395494z m-91.148953-6.121417h-67.039859v-33.519418h67.039859v33.519418z m-100.559276 0h-67.039859v-33.519418h67.039859v33.519418z m-100.559277 0h-67.039859v-33.519418h67.039859v33.519418z m-100.559277 0h-67.039859v-33.519418h67.039859v33.519418z m-100.559277 0h-67.039859v-33.519418h67.039859v33.519418z m-100.559277 0H193.562461v-33.519418h67.039859v33.519418zM545.518395 277.357935h-67.038836c-27.764344 0-50.279127 24.25645-50.279127 54.143131 0 29.915333 22.515806 54.143131 50.279127 54.143131h67.038836c27.76639 0 50.279127-24.227798 50.279126-54.143131 0-29.915333-22.512736-54.143131-50.279126-54.143131z m0 72.210626h-67.038836c-9.366322-0.161682-16.85283-8.230452-16.758686-18.067495-0.078795-9.825786 7.40362-17.877159 16.758686-18.038841h67.038836c9.219989 0 16.761756 8.125051 16.761755 18.038841 0.093121 9.837042-7.393387 17.905812-16.761755 18.067495z m0 108.286261h-67.038836c-27.764344 0-50.279127 24.224728-50.279127 54.143131 0 29.915333 22.515806 54.140061 50.279127 54.140061h67.038836c27.76639 0 50.279127-24.254404 50.279126-54.140061 0-29.918403-22.512736-54.143131-50.279126-54.143131z m0 180.493818h-67.038836c-27.764344 0-50.279127 24.227798-50.279127 54.143131 0 29.91738 22.515806 54.143131 50.279127 54.143131h67.038836c27.76639 0 50.279127-24.254404 50.279126-54.143131 0-29.915333-22.512736-54.143131-50.279126-54.143131z m0 72.180949h-67.038836c-9.355065-0.160659-16.83748-8.212032-16.758686-18.037818-0.094144-9.834996 7.392364-17.905812 16.758686-18.067495h67.038836c9.219989 0 16.761756 8.125051 16.761755 18.067495 0.076748 9.825786-7.40362 17.877159-16.761755 18.037818zM361.160573 674.453952c-17.884322 0.00921-35.003212-7.612375-47.430242-21.116946-12.653181-13.678534-19.693528-32.023344-19.608594-51.092656 0-19.327184 6.982018-37.423331 19.608594-51.091632 12.411681-13.527085 29.541827-21.152762 47.430242-21.116946h33.520441v-36.07666h-33.520441c-55.530734 0-100.559277 48.482201-100.559277 108.284215 0 59.804061 45.028543 108.286262 100.559277 108.286262v36.105313l50.279127-54.143131-50.279127-54.143131v36.105312z m301.677831-361.019357h-33.520442v36.075637h33.520442c17.882276-0.00921 35.002189 7.614421 47.430242 21.116947 12.679787 13.668301 19.608593 31.7931 19.608593 51.093678 0 19.327184-6.984065 37.423331-19.608593 51.090609-12.429077 13.504572-29.547966 21.126156-47.430242 21.118993v-36.075637l-50.279127 54.143131 50.279127 54.140061v-36.07359c55.530734 0 100.559277-48.5129 100.559276-108.314914 0-59.805084-45.028543-108.286262-100.559276-108.286262v-0.028653z" fill="#4A4A4A" p-id="8715"></path></svg>