<?xml version="1.0" standalone="no"?><!DOCTYPE svg PUBLIC "-//W3C//DTD SVG 1.1//EN" "http://www.w3.org/Graphics/SVG/1.1/DTD/svg11.dtd"><svg t="1639747895812" class="icon" viewBox="0 0 1280 1024" version="1.1" xmlns="http://www.w3.org/2000/svg" p-id="17333" xmlns:xlink="http://www.w3.org/1999/xlink" width="625" height="500"><defs><style type="text/css"></style></defs><path d="M858.148572 309.753124C872.728381 309.753124 887.070474 310.852936 901.491809 312.42409 862.665144 133.155348 669.403428 0 448.725335 0 202.057143 0 0 166.620943 0 378.334024 0 500.491295 67.193905 600.809513 179.553524 678.73878L134.704762 812.522593 291.596191 734.593326C347.696763 745.512852 392.704 756.825165 448.725335 756.825165 462.829716 756.825165 476.775619 756.1967 490.563046 755.17545 481.846856 725.402071 476.696381 694.293212 476.696381 661.848868 476.775619 467.497047 645.077335 309.753124 858.148572 309.753124L858.148572 309.753124ZM616.947809 189.167012C650.861716 189.167012 673.127619 211.241733 673.127619 244.707328 673.127619 278.015805 650.861716 300.3262 616.947809 300.3262 583.430093 300.3262 549.674665 278.015805 549.674665 244.707328 549.674665 211.163177 583.350856 189.167012 616.947809 189.167012L616.947809 189.167012ZM302.927237 300.3262C269.251046 300.3262 235.337143 278.015805 235.337143 244.707328 235.337143 211.241733 269.251046 189.167012 302.927237 189.167012 336.603428 189.167012 358.948572 211.163177 358.948572 244.707328 358.948572 278.015805 336.603428 300.3262 302.927237 300.3262L302.927237 300.3262ZM1267.809526 656.506941C1267.809526 478.652242 1088.256 333.713234 886.595046 333.713234 673.048381 333.713234 504.984381 478.730803 504.984381 656.506941 504.984381 834.832988 673.127619 979.300652 886.595046 979.300652 931.285335 979.300652 976.371809 968.224012 1021.220572 957.068815L1144.277335 1024 1110.521907 912.762255C1200.615619 845.673953 1267.809526 756.825165 1267.809526 656.506941L1267.809526 656.506941ZM762.825144 600.809513C740.559237 600.809513 717.976381 578.813348 717.976381 556.345841 717.976381 534.192558 740.559237 511.882163 762.825144 511.882163 796.897526 511.882163 819.004954 534.192558 819.004954 556.345841 819.004954 578.813348 796.897526 600.809513 762.825144 600.809513L762.825144 600.809513ZM1009.651809 600.809513C987.544381 600.809513 965.040763 578.813348 965.040763 556.345841 965.040763 534.192558 987.465144 511.882163 1009.651809 511.882163 1043.407237 511.882163 1065.831619 534.192558 1065.831619 556.345841 1065.831619 578.813348 1043.407237 600.809513 1009.651809 600.809513L1009.651809 600.809513Z" p-id="17334" fill="#26b60d" data-spm-anchor-id="a313x.7781069.0.i28" class="selected"></path></svg>