<?xml version="1.0" standalone="no"?><!DOCTYPE svg PUBLIC "-//W3C//DTD SVG 1.1//EN" "http://www.w3.org/Graphics/SVG/1.1/DTD/svg11.dtd"><svg t="1698487798609" class="icon" viewBox="0 0 1024 1024" version="1.1" xmlns="http://www.w3.org/2000/svg" p-id="4537" xmlns:xlink="http://www.w3.org/1999/xlink" width="200" height="200"><path d="M217.28 218.16m78.86 0l448.4 0q78.86 0 78.86 78.86l0 448.4q0 78.86-78.86 78.86l-448.4 0q-78.86 0-78.86-78.86l0-448.4q0-78.86 78.86-78.86Z" fill="#EFEFEF" p-id="4538"></path><path d="M431.82 283.82m81.66 0l-0.02 0q81.66 0 81.66 81.66l0 150.16q0 81.66-81.66 81.66l0.02 0q-81.66 0-81.66-81.66l0-150.16q0-81.66 81.66-81.66Z" fill="#99D1FF" p-id="4539"></path><path d="M513.46 613.3a97.76 97.76 0 0 1-97.66-97.66v-150.16a97.66 97.66 0 0 1 195.3 0v150.16a97.76 97.76 0 0 1-97.64 97.66z m0-313.48a65.72 65.72 0 0 0-65.66 65.66v150.16a65.66 65.66 0 1 0 131.3 0v-150.16a65.72 65.72 0 0 0-65.64-65.66z" fill="#18659E" p-id="4540"></path><path d="M513.46 671.5a143.28 143.28 0 0 1-143.12-143.12 16 16 0 0 1 32 0 111.12 111.12 0 0 0 222.22 0 16 16 0 0 1 32 0 143.28 143.28 0 0 1-143.1 143.12z" fill="#18659E" p-id="4541"></path><path d="M513.46 741.52a16 16 0 0 1-16-16v-70a16 16 0 0 1 32 0v70a16 16 0 0 1-16 16z" fill="#18659E" p-id="4542"></path><path d="M583.88 748.68h-140.84a16 16 0 0 1 0-32h140.84a16 16 0 0 1 0 32zM313.02 568.14a16 16 0 0 1-16-16v-172.86a16 16 0 0 1 32 0v172.84a16 16 0 0 1-16 16.02zM237.46 512.7a16 16 0 0 1-16-16v-63.4a16 16 0 0 1 32 0v63.4a16 16 0 0 1-16 16zM717.08 567.42a16 16 0 0 1-16-16v-172.84a16 16 0 0 1 32 0v172.84a16 16 0 0 1-16 16zM792.64 512a16 16 0 0 1-16-16v-63.4a16 16 0 0 1 32 0V496a16 16 0 0 1-16 16zM583.88 449.3h-144.94a16 16 0 0 1 0-32h144.92a16 16 0 0 1 0 32zM125.04 357.16a16 16 0 0 1-16-16v-222a16 16 0 0 1 16-16h245.82a16 16 0 0 1 0 32H141.04v206a16 16 0 0 1-16 16zM370.86 915.1H125.04a16 16 0 0 1-16-16V632a16 16 0 0 1 32 0v251.1h229.82a16 16 0 0 1 0 32zM905.04 915.1H661.62a16 16 0 0 1 0-32h227.42V632a16 16 0 0 1 32 0v267.1a16 16 0 0 1-16 16zM905.04 357.16a16 16 0 0 1-16-16v-206H661.62a16 16 0 1 1 0-32h243.42a16 16 0 0 1 16 16v222a16 16 0 0 1-16 16z" fill="#18659E" p-id="4543"></path></svg>