<?xml version="1.0" standalone="no"?><!DOCTYPE svg PUBLIC "-//W3C//DTD SVG 1.1//EN" "http://www.w3.org/Graphics/SVG/1.1/DTD/svg11.dtd"><svg t="1692341860087" class="icon" viewBox="0 0 1024 1024" version="1.1" xmlns="http://www.w3.org/2000/svg" p-id="1584" xmlns:xlink="http://www.w3.org/1999/xlink" width="200" height="200"><path d="M801.792 1016.832h-283.648c-279.552 0-509.952-225.792-508.416-505.344 1.536-274.432 224.768-497.664 499.2-499.2 279.552-1.536 505.344 228.864 505.344 508.416v60.928c0 9.728-7.68 17.408-17.408 17.408s-17.408-7.68-17.408-17.408v-60.928c0-257.024-204.8-471.04-461.824-474.112C254.976 43.52 40.96 257.536 44.032 520.192c3.072 257.024 217.088 461.824 474.112 461.824h283.648c53.76 0 72.192-26.112 75.776-79.36v-135.168c0-9.728 7.68-17.408 17.408-17.408s17.408 7.68 17.408 17.408v139.776c-5.632 69.632-39.424 109.568-110.592 109.568z" p-id="1585"></path><path d="M512 799.232c-18.432 0-33.28-14.848-33.28-33.28V263.168c0-18.432 14.848-33.28 33.28-33.28s33.28 14.848 33.28 33.28v502.784c0 18.432-14.848 33.28-33.28 33.28z m-148.992-83.456c-18.432 0-33.28-14.848-33.28-33.28V346.624c0-18.432 14.848-33.28 33.28-33.28s33.28 14.848 33.28 33.28v335.872c0 18.432-14.848 33.28-33.28 33.28z m297.984 0c-18.432 0-33.28-14.848-33.28-33.28V346.624c0-18.432 14.848-33.28 33.28-33.28s33.28 14.848 33.28 33.28v335.872c0 18.432-14.848 33.28-33.28 33.28zM1006.592 771.072h-221.696c-9.216 0-16.896-7.68-16.896-16.896 0-9.216 7.68-16.896 16.896-16.896h221.696c9.216 0 16.896 7.68 16.896 16.896 0.512 9.216-7.168 16.896-16.896 16.896z" p-id="1586"></path></svg>