<?xml version="1.0" standalone="no"?><!DOCTYPE svg PUBLIC "-//W3C//DTD SVG 1.1//EN" "http://www.w3.org/Graphics/SVG/1.1/DTD/svg11.dtd"><svg t="1735438848203" class="icon" viewBox="0 0 1228 1024" version="1.1" xmlns="http://www.w3.org/2000/svg" p-id="4291" xmlns:xlink="http://www.w3.org/1999/xlink" width="239.84375" height="200"><path d="M136.533333 136.533333m375.466667 0l204.8 0q375.466667 0 375.466667 375.466667l0 0q0 375.466667-375.466667 375.466667l-204.8 0q-375.466667 0-375.466667-375.466667l0 0q0-375.466667 375.466667-375.466667Z" fill="#5574F8" p-id="4292"></path><path d="M744.106667 266.24c130.56 0 235.52 110.4896 235.52 245.76s-104.96 245.76-235.52 245.76h-259.413334c-130.56 0-235.52-110.4896-235.52-245.76s104.96-245.76 235.52-245.76z m0 81.92h-259.413334c-84.343467 0-153.6 72.9088-153.6 163.84 0 90.9312 69.256533 163.84 153.6 163.84h259.413334c84.343467 0 153.6-72.9088 153.6-163.84 0-90.9312-69.256533-163.84-153.6-163.84z m-249.173334 112.64a51.2 51.2 0 1 1 0 102.4 51.2 51.2 0 0 1 0-102.4z m238.933334 0a51.2 51.2 0 1 1 0 102.4 51.2 51.2 0 0 1 0-102.4z" fill="#FFFFFF" p-id="4293"></path></svg>